<svg width="49" height="42" viewBox="0 0 49 42" fill="none" xmlns="http://www.w3.org/2000/svg">
<path d="M28.1231 41.04V26.8339C28.1231 19.7834 29.7016 13.8379 32.8585 8.99724C36.1207 4.05139 41.2243 1.05231 48.1696 0V8.20801C44.0656 8.62893 41.2243 10.1022 39.6459 12.6277C38.1727 15.048 37.436 18.6785 37.436 23.5191L31.1222 22.572H48.0117V41.04H28.1231ZM0.5 41.04V26.8339C0.5 19.7834 2.07846 13.8379 5.23539 8.99724C8.49755 4.05139 13.6012 1.05231 20.5465 0V8.20801C16.4425 8.62893 13.6012 10.1022 12.0228 12.6277C10.5495 15.048 9.81293 18.6785 9.81293 23.5191L3.49908 22.572H20.3886V41.04H0.5Z" fill="white"/>
</svg>
